<svg id="Layer_1" data-name="Layer 1" xmlns="http://www.w3.org/2000/svg" viewBox="0 0 40.17 43.82"><defs><style>.cls-1{fill:none;stroke:#c1272d;stroke-linecap:square;stroke-miterlimit:3.25;stroke-width:0.25px;}.cls-2{font-size:12.61px;fill:#fff;font-family:HelveticaNeue-Medium, Helvetica Neue;font-weight:500;}.cls-3{font-size:7.89px;fill:gray;font-family:HelveticaNeue-Thin, Helvetica Neue;font-weight:200;}.cls-4{letter-spacing:-0.01em;}</style></defs><polyline class="cls-1" points="0.3 12.26 0.35 12.26 0.4 12.27 0.5 12.28 0.69 12.3 0.7 12.3 0.71 12.3 0.74 12.3 0.79 12.31 0.89 12.32 1.08 12.34 1.09 12.34 1.1 12.34 1.13 12.34 1.18 12.35 1.29 12.36 1.3 12.36 1.32 12.36 1.34 12.36 1.4 12.36 1.5 12.37 1.51 12.37 1.53 12.37 1.55 12.38 1.6 12.38 1.62 12.38 1.63 12.38 1.66 12.38 1.71 12.39 1.72 12.39 1.74 12.39 1.76 12.39 1.82 12.39 1.83 12.39 1.84 12.39 1.87 12.39 1.92 12.4 1.93 12.4 1.95 12.4 1.97 12.4 1.98 12.4 2 12.4 2.02 12.4 2.03 12.4 2.04 12.4 2.07 12.4 2.08 12.4 2.09 12.4 2.12 12.4 2.13 12.4 2.14 12.4 2.15 12.4 2.17 12.4 2.18 12.4 2.19 12.4 2.22 12.4 2.23 12.4 2.24 12.4 2.25 12.4 2.26 12.4 2.28 12.4 2.3 12.4 2.31 12.4 2.33 12.4 2.34 12.4 2.35 12.4 2.4 12.4 2.42 12.4 2.44 12.4 2.45 12.4 2.46 12.4 2.47 12.4 2.49 12.4 2.5 12.4 2.51 12.4 2.52 12.4 2.54 12.4 2.55 12.4 2.56 12.4 2.57 12.4 2.58 12.4 2.61 12.4 2.62 12.4 2.63 12.4 2.66 12.4 2.71 12.4 2.73 12.4 2.75 12.4 2.8 12.4 2.83 12.39 2.85 12.39 2.9 12.39 2.91 12.39 2.92 12.39 2.95 12.39 3 12.39 3.09 12.38 3.1 12.38 3.12 12.38 3.14 12.38 3.19 12.37 3.29 12.37 3.31 12.36 3.33 12.36 3.38 12.36 3.48 12.35 3.49 12.35 3.5 12.35 3.53 12.34 3.58 12.34 3.69 12.33 3.9 12.3 4.31 12.25 4.33 12.25 4.34 12.25 4.36 12.24 4.41 12.24 4.51 12.22 4.7 12.2 4.72 12.2 4.75 12.19 4.8 12.19 4.9 12.17 5.09 12.15 5.11 12.15 5.12 12.15 5.15 12.14 5.2 12.14 5.3 12.13 5.32 12.13 5.33 12.12 5.36 12.12 5.41 12.12 5.52 12.11 5.53 12.11 5.54 12.1 5.57 12.1 5.62 12.1 5.63 12.1 5.65 12.1 5.67 12.09 5.73 12.09 5.74 12.09 5.75 12.09 5.78 12.09 5.83 12.08 5.85 12.08 5.86 12.08 5.89 12.08 5.94 12.08 5.96 12.08 5.99 12.07 6 12.07 6.04 12.07 6.07 12.07 6.11 12.07 6.15 12.07 6.17 12.07 6.19 12.07 6.2 12.07 6.21 12.07 6.22 12.07 6.24 12.07 6.25 12.07 6.26 12.07 6.3 12.07 6.34 12.07 6.37 12.07 6.41 12.07 6.42 12.07 6.43 12.07 6.45 12.07 6.46 12.07 6.47 12.07 6.48 12.07 6.5 12.07 6.51 12.07 6.52 12.07 6.54 12.07 6.56 12.07 6.58 12.07 6.63 12.07 6.64 12.07 6.67 12.07 6.68 12.07 6.69 12.07 6.72 12.07 6.77 12.08 6.82 12.08 6.87 12.08 6.92 12.09 6.96 12.09 6.97 12.09 7.01 12.09 7.06 12.1 7.16 12.11 7.17 12.11 7.18 12.11 7.21 12.11 7.25 12.12 7.35 12.13 7.54 12.15 7.57 12.15 7.6 12.16 7.65 12.16 7.75 12.18 7.96 12.21 8.38 12.29 8.4 12.29 8.41 12.29 8.43 12.3 8.48 12.3 8.58 12.32 8.78 12.36 8.79 12.36 8.8 12.36 8.82 12.37 8.87 12.37 8.97 12.39 9.17 12.42 9.18 12.42 9.19 12.43 9.21 12.43 9.26 12.44 9.36 12.45 9.37 12.45 9.38 12.45 9.41 12.46 9.46 12.46 9.55 12.47 9.58 12.48 9.6 12.48 9.65 12.49 9.67 12.49 9.7 12.49 9.74 12.49 9.76 12.5 9.77 12.5 9.79 12.5 9.84 12.5 9.85 12.51 9.86 12.51 9.89 12.51 9.94 12.51 9.95 12.51 9.99 12.51 10.01 12.52 10.04 12.52 10.07 12.52 10.09 12.52 10.12 12.52 10.14 12.52 10.16 12.52 10.18 12.52 10.21 12.52 10.22 12.52 10.26 12.52 10.27 12.53 10.3 12.53 10.31 12.53 10.33 12.53 10.34 12.53 10.35 12.53 10.37 12.53 10.38 12.53 10.42 12.53 10.43 12.53 10.46 12.52 10.48 12.52 10.5 12.52 10.52 12.52 10.54 12.52 10.56 12.52 10.57 12.52 10.59 12.52 10.61 12.52 10.63 12.52 10.66 12.52 10.69 12.52 10.72 12.51 10.77 12.51 10.79 12.51 10.82 12.51 10.87 12.5 10.88 12.5 10.89 12.5 10.92 12.5 10.96 12.49 10.98 12.49 10.99 12.49 11.01 12.49 11.06 12.48 11.16 12.47 11.17 12.47 11.18 12.47 11.21 12.46 11.26 12.46 11.35 12.44 11.37 12.44 11.38 12.44 11.4 12.43 11.45 12.42 11.55 12.4 11.56 12.4 11.57 12.4 11.6 12.39 11.65 12.38 11.76 12.36 11.97 12.31 12.39 12.2 12.4 12.2 12.42 12.19 12.44 12.18 12.49 12.17 12.6 12.14 12.8 12.08 12.82 12.08 12.83 12.08 12.86 12.07 12.91 12.05 13.01 12.03 13.22 11.97 13.23 11.97 13.24 11.97 13.27 11.96 13.31 11.95 13.41 11.93 13.42 11.93 13.44 11.92 13.46 11.92 13.51 11.91 13.61 11.89 13.63 11.88 13.65 11.88 13.7 11.87 13.72 11.87 13.75 11.86 13.8 11.86 13.82 11.85 13.85 11.85 13.89 11.84 13.91 11.84 13.94 11.84 13.99 11.83 14 11.83 14.02 11.83 14.04 11.82 14.06 11.82 14.07 11.82 14.1 11.82 14.11 11.82 14.12 11.82 14.15 11.81 14.17 11.81 14.2 11.81 14.21 11.81 14.23 11.81 14.24 11.81 14.25 11.81 14.27 11.81 14.28 11.81 14.3 11.81 14.32 11.81 14.34 11.8 14.36 11.8 14.38 11.8 14.41 11.8 14.42 11.8 14.44 11.8 14.46 11.8 14.47 11.8 14.49 11.8 14.5 11.8 14.51 11.8 14.53 11.81 14.55 11.81 14.57 11.81 14.58 11.81 14.59 11.81 14.62 11.81 14.63 11.81 14.64 11.81 14.67 11.81 14.68 11.81 14.7 11.81 14.72 11.82 14.74 11.82 14.75 11.82 14.78 11.82 14.83 11.83 14.84 11.83 14.85 11.83 14.88 11.84 14.93 11.84 14.94 11.84 14.95 11.85 14.97 11.85 15.02 11.86 15.04 11.86 15.05 11.86 15.07 11.87 15.12 11.88 15.22 11.9 15.23 11.9 15.24 11.91 15.27 11.91 15.32 11.93 15.41 11.96 15.43 11.96 15.44 11.96 15.46 11.97 15.51 11.99 15.61 12.02 15.62 12.03 15.64 12.03 15.66 12.04 15.71 12.06 15.82 12.11 16.03 12.21 16.05 12.21 16.06 12.22 16.09 12.24 16.14 12.26 16.25 12.32 16.46 12.44 16.47 12.45 16.48 12.46 16.51 12.48 16.56 12.51 16.66 12.57 16.87 12.71 17.29 13.01 17.3 13.01 17.34 13.04 17.39 13.07 17.48 13.14 17.68 13.29 18.06 13.56 18.08 13.57 18.09 13.57 18.12 13.59 18.17 13.63 18.27 13.7 18.48 13.83 18.5 13.83 18.51 13.84 18.54 13.86 18.59 13.89 18.7 13.95 18.91 14.05 18.92 14.06 18.93 14.06 18.95 14.07 19 14.1 19.1 14.14 19.11 14.14 19.13 14.15 19.15 14.16 19.2 14.18 19.3 14.21 19.31 14.21 19.32 14.22 19.35 14.23 19.4 14.24 19.41 14.24 19.42 14.25 19.45 14.26 19.49 14.27 19.51 14.27 19.52 14.27 19.54 14.28 19.59 14.29 19.62 14.29 19.64 14.3 19.69 14.31 19.7 14.31 19.71 14.31 19.74 14.32 19.75 14.32 19.76 14.32 19.79 14.32 19.8 14.32 19.81 14.33 19.83 14.33 19.86 14.33 19.88 14.33 19.89 14.34 19.91 14.34 19.92 14.34 19.93 14.34 19.94 14.34 19.95 14.34 19.97 14.34 19.98 14.34 19.99 14.34 20 14.34 20.02 14.34 20.03 14.34 20.04 14.34 20.05 14.34 20.06 14.34 20.07 14.34 20.09 14.34 20.1 14.34 20.11 14.34 20.14 14.34 20.16 14.34 20.17 14.34 20.18 14.34 20.21 14.34 20.22 14.34 20.23 14.34 20.24 14.34 20.27 14.34 20.28 14.34 20.29 14.33 20.32 14.33 20.33 14.33 20.34 14.33 20.36 14.33 20.38 14.32 20.39 14.32 20.41 14.32 20.46 14.31 20.47 14.31 20.49 14.31 20.51 14.3 20.56 14.29 20.58 14.29 20.59 14.29 20.62 14.28 20.67 14.27 20.68 14.27 20.7 14.26 20.72 14.26 20.77 14.24 20.88 14.21 20.89 14.2 20.9 14.2 20.93 14.19 20.98 14.17 21.09 14.13 21.1 14.12 21.11 14.12 21.14 14.11 21.19 14.09 21.3 14.04 21.31 14.03 21.32 14.02 21.34 14.01 21.39 13.99 21.49 13.94 21.68 13.82 22.07 13.58 22.09 13.57 22.1 13.56 22.13 13.54 22.18 13.51 22.29 13.43 22.5 13.28 22.92 12.98 22.93 12.97 22.95 12.96 22.97 12.94 23.02 12.9 23.13 12.83 23.33 12.69 23.36 12.67 23.39 12.65 23.44 12.62 23.54 12.55 23.75 12.42 23.76 12.41 23.77 12.41 23.8 12.39 23.84 12.37 23.94 12.31 24.14 12.21 24.15 12.2 24.16 12.2 24.18 12.19 24.23 12.16 24.33 12.12 24.52 12.04 24.55 12.03 24.57 12.02 24.63 12 24.73 11.96 24.74 11.96 24.76 11.95 24.78 11.95 24.84 11.93 24.94 11.9 24.95 11.9 24.97 11.9 24.99 11.89 25.05 11.88 25.06 11.88 25.07 11.87 25.1 11.87 25.15 11.86 25.16 11.86 25.18 11.85 25.2 11.85 25.26 11.84 25.27 11.84 25.28 11.84 25.31 11.83 25.36 11.83 25.37 11.82 25.39 11.82 25.41 11.82 25.42 11.82 25.43 11.82 25.46 11.82 25.47 11.81 25.48 11.81 25.51 11.81 25.52 11.81 25.53 11.81 25.56 11.81 25.57 11.81 25.58 11.81 25.59 11.81 25.61 11.81 25.63 11.81 25.64 11.81 25.65 11.8 25.67 11.8 25.68 11.8 25.69 11.8 25.71 11.8 25.73 11.8 25.74 11.8 25.75 11.8 25.76 11.8 25.78 11.8 25.79 11.8 25.8 11.8 25.81 11.8 25.84 11.8 25.85 11.81 25.86 11.81 25.87 11.81 25.89 11.81 25.9 11.81 25.91 11.81 25.92 11.81 25.95 11.81 25.96 11.81 25.97 11.81 26 11.81 26.01 11.81 26.02 11.81 26.05 11.82 26.07 11.82 26.09 11.82 26.14 11.83 26.16 11.83 26.17 11.83 26.19 11.83 26.24 11.84 26.25 11.84 26.26 11.84 26.29 11.84 26.34 11.85 26.35 11.85 26.36 11.85 26.38 11.86 26.43 11.87 26.53 11.88 26.54 11.88 26.55 11.89 26.57 11.89 26.62 11.9 26.72 11.92 26.91 11.96 26.92 11.97 26.94 11.97 26.96 11.98 27.02 11.99 27.12 12.02 27.33 12.07 27.74 12.19 27.77 12.2 27.79 12.2 27.84 12.22 27.94 12.24 28.13 12.29 28.16 12.3 28.18 12.3 28.23 12.32 28.33 12.34 28.52 12.38 28.54 12.39 28.55 12.39 28.57 12.39 28.63 12.4 28.73 12.43 28.75 12.43 28.76 12.43 28.78 12.43 28.84 12.44 28.94 12.46 28.97 12.46 29 12.47 29.05 12.47 29.06 12.48 29.07 12.48 29.1 12.48 29.15 12.49 29.18 12.49 29.21 12.49 29.26 12.5 29.27 12.5 29.29 12.5 29.31 12.5 29.36 12.51 29.38 12.51 29.39 12.51 29.41 12.51 29.44 12.51 29.46 12.51 29.47 12.52 29.49 12.52 29.51 12.52 29.52 12.52 29.54 12.52 29.56 12.52 29.57 12.52 29.59 12.52 29.6 12.52 29.61 12.52 29.62 12.52 29.63 12.52 29.66 12.52 29.67 12.52 29.68 12.52 29.71 12.52 29.72 12.52 29.73 12.53 29.75 12.53 29.77 12.53 29.78 12.53 29.79 12.53 29.81 12.53 29.82 12.53 29.83 12.53 29.84 12.53 29.86 12.53 29.87 12.53 29.88 12.53 29.89 12.53 29.92 12.52 29.93 12.52 29.94 12.52 29.95 12.52 29.98 12.52 29.99 12.52 30 12.52 30.02 12.52 30.03 12.52 30.05 12.52 30.06 12.52 30.08 12.52 30.1 12.52 30.15 12.52 30.16 12.52 30.17 12.51 30.2 12.51 30.25 12.51 30.26 12.51 30.27 12.51 30.3 12.51 30.34 12.5 30.36 12.5 30.37 12.5 30.39 12.5 30.44 12.49 30.54 12.48 30.55 12.48 30.56 12.48 30.58 12.48 30.63 12.47 30.73 12.46 30.92 12.43 30.95 12.43 30.97 12.43 31.03 12.42 31.13 12.4 31.34 12.37 31.76 12.29 31.81 12.28 31.86 12.28 31.95 12.26 32.15 12.22 32.17 12.22 32.2 12.22 32.25 12.21 32.34 12.19 32.54 12.16 32.55 12.16 32.56 12.16 32.59 12.15 32.64 12.15 32.75 12.13 32.76 12.13 32.78 12.13 32.8 12.13 32.86 12.12 32.96 12.11 32.98 12.11 32.99 12.11 33.02 12.11 33.07 12.1 33.08 12.1 33.09 12.1 33.12 12.1 33.17 12.09 33.19 12.09 33.2 12.09 33.23 12.09 33.28 12.08 33.29 12.08 33.3 12.08 33.33 12.08 33.38 12.08 33.41 12.08 33.44 12.08 33.45 12.07 33.49 12.07 33.52 12.07 33.55 12.07 33.57 12.07 33.59 12.07 33.62 12.07 33.63 12.07 33.68 12.07 33.7 12.07 33.75 12.07 33.76 12.07 33.77 12.07 33.8 12.07 33.83 12.07 33.84 12.07 33.85 12.07 33.9 12.07 33.92 12.07 33.93 12.07 33.94 12.07 33.96 12.07 33.98 12.07 34.01 12.07 34.02 12.07 34.03 12.07 34.06 12.07 34.07 12.07 34.09 12.07 34.14 12.07 34.16 12.07 34.22 12.08 34.23 12.08 34.26 12.08 34.31 12.08 34.34 12.08 34.36 12.08 34.41 12.09 34.42 12.09 34.46 12.09 34.51 12.09 34.6 12.1 34.62 12.1 34.65 12.11 34.7 12.11 34.8 12.12 34.99 12.14 35.02 12.14 35.04 12.15 35.09 12.15 35.2 12.16 35.41 12.19 35.83 12.25 35.84 12.25 35.85 12.25 35.88 12.25 35.93 12.26 36.03 12.27 36.22 12.3 36.23 12.3 36.25 12.3 36.27 12.3 36.32 12.31 36.42 12.32 36.62 12.34 36.63 12.34 36.66 12.35 36.71 12.35 36.81 12.36 36.83 12.36 36.85 12.36 36.9 12.37 37 12.38 37.01 12.38 37.02 12.38 37.05 12.38 37.09 12.38 37.11 12.38 37.12 12.38 37.14 12.38 37.19 12.39 37.2 12.39 37.24 12.39 37.29 12.39 37.3 12.39 37.31 12.39 37.34 12.39 37.38 12.4 37.4 12.4 37.41 12.4 37.46 12.4 37.49 12.4 37.54 12.4 37.57 12.4 37.59 12.4 37.61 12.4 37.62 12.4 37.66 12.4 37.7 12.4 37.74 12.4 37.77 12.4 37.83 12.4 37.85 12.4 37.91 12.4 37.93 12.4 37.94 12.4 37.96 12.4 37.97 12.4 37.98 12.4 38.01 12.4 38.02 12.4 38.08 12.4 38.09 12.4 38.11 12.4 38.13 12.4 38.14 12.4 38.17 12.4 38.22 12.4 38.23 12.4 38.27 12.39 38.32 12.39 38.34 12.39 38.36 12.39 38.41 12.39 38.44 12.39 38.46 12.39 38.51 12.38 38.61 12.38 38.66 12.37 38.7 12.37 38.8 12.36 39 12.35 39.01 12.34 39.02 12.34 39.05 12.34 39.1 12.34 39.21 12.32 39.43 12.3 39.45 12.3 39.46 12.3 39.49 12.3 39.54 12.29 39.65 12.28 39.66 12.28 39.68 12.28 39.7 12.28 39.76 12.27 39.78 12.27 39.81 12.26 39.84 12.26 39.85 12.26 39.87 12.26"/><text class="cls-2" transform="translate(20.08 10.8)">MR</text><text class="cls-2" transform="matrix(-1, 0, 0, 1, 20.08, 10.8)">MR</text><text class="cls-3" transform="translate(0.3 20.63)"><tspan class="cls-4">r</tspan><tspan x="2.1" y="0">obust</tspan><tspan x="0" y="6.9">methods for</tspan><tspan x="0" y="13.8">magnetic</tspan><tspan class="cls-4" x="0" y="20.7">r</tspan><tspan x="2.1" y="20.7">esonance</tspan></text></svg>