<svg id="Layer_1" data-name="Layer 1" xmlns="http://www.w3.org/2000/svg" viewBox="0 0 40.67 44.05"><defs><style>.cls-1{fill:none;stroke:#c1272d;stroke-linecap:square;stroke-miterlimit:3.25;stroke-width:0.25px;}.cls-2{font-size:12.61px;fill:#fff;stroke:#000;stroke-miterlimit:10;stroke-width:0.5px;font-family:HelveticaNeue-Medium, Helvetica Neue;font-weight:500;}.cls-3{font-size:7.89px;fill:#2e3192;font-family:HelveticaNeue-Thin, Helvetica Neue;font-weight:200;}.cls-4{letter-spacing:-0.01em;}</style></defs><polyline class="cls-1" points="0.55 12.51 0.6 12.51 0.65 12.52 0.75 12.53 0.94 12.55 0.95 12.55 0.96 12.55 0.99 12.55 1.04 12.56 1.14 12.57 1.33 12.59 1.34 12.59 1.35 12.59 1.38 12.59 1.43 12.6 1.54 12.61 1.55 12.61 1.57 12.61 1.59 12.61 1.65 12.61 1.75 12.62 1.76 12.62 1.78 12.62 1.8 12.63 1.85 12.63 1.87 12.63 1.88 12.63 1.91 12.63 1.96 12.64 1.97 12.64 1.99 12.64 2.01 12.64 2.07 12.64 2.08 12.64 2.09 12.64 2.12 12.64 2.17 12.65 2.18 12.65 2.19 12.65 2.22 12.65 2.23 12.65 2.25 12.65 2.27 12.65 2.28 12.65 2.29 12.65 2.32 12.65 2.33 12.65 2.34 12.65 2.37 12.65 2.38 12.65 2.39 12.65 2.4 12.65 2.42 12.65 2.43 12.65 2.44 12.65 2.47 12.65 2.48 12.65 2.49 12.65 2.5 12.65 2.51 12.65 2.53 12.65 2.55 12.65 2.56 12.65 2.58 12.65 2.59 12.65 2.6 12.65 2.65 12.65 2.67 12.65 2.69 12.65 2.7 12.65 2.71 12.65 2.72 12.65 2.74 12.65 2.75 12.65 2.76 12.65 2.77 12.65 2.79 12.65 2.8 12.65 2.81 12.65 2.82 12.65 2.83 12.65 2.86 12.65 2.87 12.65 2.88 12.65 2.91 12.65 2.96 12.65 2.98 12.65 3 12.65 3.05 12.65 3.08 12.64 3.1 12.64 3.15 12.64 3.16 12.64 3.17 12.64 3.2 12.64 3.25 12.64 3.34 12.63 3.35 12.63 3.37 12.63 3.39 12.63 3.44 12.62 3.54 12.62 3.56 12.61 3.58 12.61 3.63 12.61 3.73 12.6 3.74 12.6 3.75 12.6 3.78 12.59 3.83 12.59 3.94 12.58 4.14 12.55 4.56 12.5 4.58 12.5 4.59 12.5 4.61 12.49 4.66 12.49 4.76 12.47 4.95 12.45 4.97 12.45 5 12.44 5.05 12.44 5.15 12.42 5.34 12.4 5.36 12.4 5.37 12.4 5.4 12.39 5.45 12.39 5.55 12.38 5.57 12.38 5.58 12.37 5.61 12.37 5.66 12.37 5.77 12.36 5.78 12.36 5.79 12.35 5.82 12.35 5.87 12.35 5.88 12.35 5.9 12.35 5.92 12.34 5.98 12.34 5.99 12.34 6 12.34 6.03 12.34 6.08 12.33 6.1 12.33 6.11 12.33 6.14 12.33 6.19 12.33 6.21 12.33 6.24 12.32 6.25 12.32 6.29 12.32 6.32 12.32 6.36 12.32 6.4 12.32 6.42 12.32 6.44 12.32 6.45 12.32 6.46 12.32 6.47 12.32 6.49 12.32 6.5 12.32 6.51 12.32 6.55 12.32 6.59 12.32 6.62 12.32 6.66 12.32 6.67 12.32 6.68 12.32 6.7 12.32 6.71 12.32 6.72 12.32 6.73 12.32 6.75 12.32 6.76 12.32 6.77 12.32 6.79 12.32 6.81 12.32 6.83 12.32 6.88 12.32 6.89 12.32 6.92 12.32 6.93 12.32 6.94 12.32 6.97 12.32 7.02 12.33 7.07 12.33 7.12 12.33 7.17 12.34 7.21 12.34 7.22 12.34 7.26 12.34 7.31 12.35 7.41 12.36 7.42 12.36 7.43 12.36 7.46 12.36 7.5 12.37 7.6 12.38 7.79 12.4 7.82 12.4 7.85 12.41 7.9 12.41 8 12.43 8.21 12.46 8.63 12.54 8.65 12.54 8.66 12.54 8.68 12.55 8.73 12.55 8.83 12.57 9.03 12.61 9.04 12.61 9.05 12.61 9.07 12.62 9.12 12.62 9.22 12.64 9.42 12.67 9.43 12.67 9.44 12.68 9.46 12.68 9.51 12.69 9.61 12.7 9.62 12.7 9.63 12.7 9.66 12.71 9.71 12.71 9.8 12.72 9.83 12.73 9.85 12.73 9.9 12.74 9.92 12.74 9.95 12.74 9.99 12.74 10.01 12.75 10.02 12.75 10.04 12.75 10.09 12.75 10.1 12.76 10.11 12.76 10.14 12.76 10.19 12.76 10.2 12.76 10.24 12.76 10.26 12.77 10.29 12.77 10.32 12.77 10.34 12.77 10.37 12.77 10.39 12.77 10.41 12.77 10.43 12.77 10.46 12.77 10.47 12.77 10.51 12.77 10.52 12.78 10.55 12.78 10.56 12.78 10.58 12.78 10.59 12.78 10.6 12.78 10.62 12.78 10.63 12.78 10.67 12.78 10.68 12.78 10.71 12.77 10.73 12.77 10.75 12.77 10.77 12.77 10.79 12.77 10.81 12.77 10.82 12.77 10.84 12.77 10.86 12.77 10.88 12.77 10.91 12.77 10.94 12.77 10.97 12.76 11.02 12.76 11.04 12.76 11.07 12.76 11.12 12.75 11.13 12.75 11.14 12.75 11.17 12.75 11.21 12.74 11.23 12.74 11.24 12.74 11.26 12.74 11.31 12.73 11.41 12.72 11.42 12.72 11.43 12.72 11.46 12.71 11.51 12.71 11.6 12.69 11.62 12.69 11.63 12.69 11.65 12.68 11.7 12.67 11.8 12.65 11.81 12.65 11.82 12.65 11.85 12.64 11.9 12.63 12.01 12.61 12.22 12.56 12.64 12.45 12.65 12.45 12.67 12.44 12.69 12.43 12.74 12.42 12.85 12.39 13.05 12.33 13.07 12.33 13.08 12.33 13.11 12.32 13.16 12.3 13.26 12.28 13.47 12.22 13.48 12.22 13.49 12.22 13.52 12.21 13.56 12.2 13.66 12.18 13.67 12.18 13.69 12.17 13.71 12.17 13.76 12.16 13.86 12.14 13.88 12.13 13.9 12.13 13.95 12.12 13.97 12.12 14 12.11 14.05 12.11 14.07 12.1 14.1 12.1 14.14 12.09 14.16 12.09 14.19 12.09 14.24 12.08 14.25 12.08 14.27 12.08 14.29 12.07 14.31 12.07 14.32 12.07 14.35 12.07 14.36 12.07 14.37 12.07 14.4 12.06 14.42 12.06 14.45 12.06 14.46 12.06 14.48 12.06 14.49 12.06 14.5 12.06 14.52 12.06 14.53 12.06 14.55 12.06 14.57 12.06 14.59 12.05 14.61 12.05 14.63 12.05 14.66 12.05 14.67 12.05 14.69 12.05 14.71 12.05 14.72 12.05 14.74 12.05 14.75 12.05 14.76 12.05 14.78 12.06 14.8 12.06 14.82 12.06 14.83 12.06 14.84 12.06 14.87 12.06 14.88 12.06 14.89 12.06 14.92 12.06 14.93 12.06 14.95 12.06 14.97 12.07 14.99 12.07 15 12.07 15.03 12.07 15.08 12.08 15.09 12.08 15.1 12.08 15.13 12.09 15.18 12.09 15.19 12.09 15.2 12.1 15.22 12.1 15.27 12.11 15.29 12.11 15.3 12.11 15.32 12.12 15.37 12.13 15.47 12.15 15.48 12.15 15.49 12.16 15.52 12.16 15.57 12.18 15.66 12.21 15.68 12.21 15.69 12.21 15.71 12.22 15.76 12.24 15.86 12.27 15.87 12.28 15.89 12.28 15.91 12.29 15.96 12.31 16.07 12.36 16.28 12.46 16.3 12.46 16.31 12.47 16.34 12.49 16.39 12.51 16.5 12.57 16.71 12.69 16.72 12.7 16.73 12.71 16.76 12.73 16.81 12.76 16.91 12.82 17.12 12.96 17.54 13.26 17.55 13.26 17.59 13.29 17.64 13.32 17.73 13.39 17.93 13.54 18.31 13.81 18.33 13.82 18.34 13.82 18.37 13.84 18.42 13.88 18.52 13.95 18.73 14.08 18.75 14.08 18.76 14.09 18.79 14.11 18.84 14.14 18.95 14.2 19.16 14.3 19.17 14.31 19.18 14.31 19.2 14.32 19.25 14.35 19.35 14.39 19.36 14.39 19.38 14.4 19.4 14.41 19.45 14.43 19.55 14.46 19.56 14.46 19.57 14.47 19.6 14.48 19.65 14.49 19.66 14.49 19.67 14.5 19.7 14.51 19.74 14.52 19.76 14.52 19.77 14.52 19.79 14.53 19.84 14.54 19.87 14.54 19.89 14.55 19.94 14.56 19.95 14.56 19.96 14.56 19.99 14.57 20 14.57 20.01 14.57 20.04 14.57 20.05 14.57 20.06 14.58 20.08 14.58 20.11 14.58 20.13 14.58 20.14 14.59 20.16 14.59 20.17 14.59 20.18 14.59 20.19 14.59 20.2 14.59 20.22 14.59 20.23 14.59 20.24 14.59 20.25 14.59 20.27 14.59 20.28 14.59 20.29 14.59 20.3 14.59 20.31 14.59 20.32 14.59 20.34 14.59 20.35 14.59 20.36 14.59 20.39 14.59 20.41 14.59 20.42 14.59 20.43 14.59 20.46 14.59 20.47 14.59 20.48 14.59 20.49 14.59 20.52 14.59 20.53 14.59 20.54 14.58 20.57 14.58 20.58 14.58 20.59 14.58 20.61 14.58 20.63 14.57 20.64 14.57 20.66 14.57 20.71 14.56 20.72 14.56 20.74 14.56 20.76 14.55 20.81 14.54 20.83 14.54 20.84 14.54 20.87 14.53 20.92 14.52 20.93 14.52 20.95 14.51 20.97 14.51 21.02 14.49 21.13 14.46 21.14 14.45 21.15 14.45 21.18 14.44 21.23 14.42 21.34 14.38 21.35 14.37 21.36 14.37 21.39 14.36 21.44 14.34 21.55 14.29 21.56 14.28 21.57 14.27 21.59 14.26 21.64 14.24 21.74 14.19 21.93 14.07 22.32 13.83 22.34 13.82 22.35 13.81 22.38 13.79 22.43 13.76 22.54 13.68 22.75 13.53 23.17 13.23 23.18 13.22 23.2 13.21 23.22 13.19 23.27 13.15 23.38 13.08 23.58 12.94 23.61 12.92 23.64 12.9 23.69 12.87 23.79 12.8 24 12.67 24.01 12.66 24.02 12.66 24.05 12.64 24.09 12.62 24.19 12.56 24.39 12.46 24.4 12.45 24.41 12.45 24.43 12.44 24.48 12.41 24.58 12.37 24.77 12.29 24.8 12.28 24.82 12.27 24.88 12.25 24.98 12.21 24.99 12.21 25.01 12.2 25.03 12.2 25.09 12.18 25.19 12.15 25.2 12.15 25.22 12.15 25.24 12.14 25.3 12.13 25.31 12.13 25.32 12.12 25.35 12.12 25.4 12.11 25.41 12.11 25.43 12.1 25.45 12.1 25.51 12.09 25.52 12.09 25.53 12.09 25.56 12.08 25.61 12.08 25.62 12.07 25.64 12.07 25.66 12.07 25.67 12.07 25.68 12.07 25.71 12.07 25.72 12.06 25.73 12.06 25.76 12.06 25.77 12.06 25.78 12.06 25.81 12.06 25.82 12.06 25.83 12.06 25.84 12.06 25.86 12.06 25.88 12.06 25.89 12.06 25.9 12.05 25.92 12.05 25.93 12.05 25.94 12.05 25.96 12.05 25.98 12.05 25.99 12.05 26 12.05 26.01 12.05 26.03 12.05 26.04 12.05 26.05 12.05 26.06 12.05 26.09 12.05 26.1 12.06 26.11 12.06 26.12 12.06 26.14 12.06 26.15 12.06 26.16 12.06 26.17 12.06 26.2 12.06 26.21 12.06 26.22 12.06 26.25 12.06 26.26 12.06 26.27 12.06 26.3 12.07 26.32 12.07 26.34 12.07 26.39 12.08 26.41 12.08 26.42 12.08 26.44 12.08 26.49 12.09 26.5 12.09 26.51 12.09 26.54 12.09 26.59 12.1 26.6 12.1 26.61 12.1 26.63 12.11 26.68 12.12 26.78 12.13 26.79 12.13 26.8 12.14 26.82 12.14 26.87 12.15 26.97 12.17 27.16 12.21 27.17 12.22 27.19 12.22 27.21 12.23 27.27 12.24 27.37 12.27 27.58 12.32 27.99 12.44 28.02 12.45 28.04 12.45 28.09 12.47 28.19 12.49 28.38 12.54 28.41 12.55 28.43 12.55 28.48 12.57 28.58 12.59 28.77 12.63 28.79 12.64 28.8 12.64 28.82 12.64 28.88 12.65 28.98 12.68 29 12.68 29.01 12.68 29.03 12.68 29.09 12.69 29.19 12.71 29.22 12.71 29.25 12.72 29.3 12.72 29.31 12.73 29.32 12.73 29.35 12.73 29.4 12.74 29.43 12.74 29.46 12.74 29.51 12.75 29.52 12.75 29.54 12.75 29.56 12.75 29.61 12.76 29.63 12.76 29.64 12.76 29.66 12.76 29.69 12.76 29.71 12.76 29.72 12.77 29.74 12.77 29.76 12.77 29.77 12.77 29.79 12.77 29.81 12.77 29.82 12.77 29.84 12.77 29.85 12.77 29.86 12.77 29.87 12.77 29.88 12.77 29.91 12.77 29.92 12.77 29.93 12.77 29.96 12.77 29.97 12.77 29.98 12.78 30 12.78 30.02 12.78 30.03 12.78 30.04 12.78 30.06 12.78 30.07 12.78 30.08 12.78 30.09 12.78 30.11 12.78 30.12 12.78 30.13 12.78 30.14 12.78 30.17 12.77 30.18 12.77 30.19 12.77 30.2 12.77 30.23 12.77 30.24 12.77 30.25 12.77 30.27 12.77 30.28 12.77 30.3 12.77 30.31 12.77 30.33 12.77 30.35 12.77 30.4 12.77 30.41 12.77 30.42 12.76 30.45 12.76 30.5 12.76 30.51 12.76 30.52 12.76 30.55 12.76 30.59 12.75 30.61 12.75 30.62 12.75 30.64 12.75 30.69 12.74 30.79 12.73 30.8 12.73 30.81 12.73 30.83 12.73 30.88 12.72 30.98 12.71 31.17 12.68 31.2 12.68 31.22 12.68 31.28 12.67 31.38 12.65 31.59 12.62 32.01 12.54 32.06 12.53 32.11 12.53 32.2 12.51 32.4 12.47 32.42 12.47 32.45 12.47 32.5 12.46 32.59 12.44 32.79 12.41 32.8 12.41 32.81 12.41 32.84 12.4 32.89 12.4 33 12.38 33.01 12.38 33.03 12.38 33.05 12.38 33.11 12.37 33.21 12.36 33.23 12.36 33.24 12.36 33.27 12.36 33.32 12.35 33.33 12.35 33.34 12.35 33.37 12.35 33.42 12.34 33.44 12.34 33.45 12.34 33.48 12.34 33.53 12.33 33.54 12.33 33.55 12.33 33.58 12.33 33.63 12.33 33.66 12.33 33.69 12.33 33.7 12.32 33.74 12.32 33.77 12.32 33.8 12.32 33.82 12.32 33.84 12.32 33.87 12.32 33.88 12.32 33.93 12.32 33.95 12.32 34 12.32 34.01 12.32 34.02 12.32 34.05 12.32 34.08 12.32 34.09 12.32 34.1 12.32 34.15 12.32 34.17 12.32 34.18 12.32 34.19 12.32 34.21 12.32 34.23 12.32 34.26 12.32 34.27 12.32 34.28 12.32 34.31 12.32 34.32 12.32 34.34 12.32 34.39 12.32 34.41 12.32 34.47 12.33 34.48 12.33 34.51 12.33 34.56 12.33 34.59 12.33 34.61 12.33 34.66 12.34 34.67 12.34 34.71 12.34 34.76 12.34 34.85 12.35 34.87 12.35 34.9 12.36 34.95 12.36 35.05 12.37 35.24 12.39 35.27 12.39 35.29 12.4 35.34 12.4 35.45 12.41 35.66 12.44 36.08 12.5 36.09 12.5 36.1 12.5 36.13 12.5 36.18 12.51 36.28 12.52 36.47 12.55 36.48 12.55 36.5 12.55 36.52 12.55 36.57 12.56 36.67 12.57 36.87 12.59 36.88 12.59 36.91 12.6 36.96 12.6 37.06 12.61 37.08 12.61 37.1 12.61 37.15 12.62 37.25 12.63 37.26 12.63 37.27 12.63 37.3 12.63 37.34 12.63 37.36 12.63 37.37 12.63 37.39 12.63 37.44 12.64 37.45 12.64 37.49 12.64 37.54 12.64 37.55 12.64 37.56 12.64 37.59 12.64 37.63 12.65 37.65 12.65 37.66 12.65 37.71 12.65 37.74 12.65 37.79 12.65 37.82 12.65 37.84 12.65 37.86 12.65 37.87 12.65 37.91 12.65 37.95 12.65 37.99 12.65 38.02 12.65 38.08 12.65 38.1 12.65 38.16 12.65 38.18 12.65 38.19 12.65 38.21 12.65 38.22 12.65 38.23 12.65 38.26 12.65 38.27 12.65 38.33 12.65 38.34 12.65 38.36 12.65 38.38 12.65 38.39 12.65 38.42 12.65 38.47 12.65 38.48 12.65 38.52 12.64 38.57 12.64 38.59 12.64 38.61 12.64 38.66 12.64 38.69 12.64 38.71 12.64 38.76 12.63 38.86 12.63 38.91 12.62 38.95 12.62 39.05 12.61 39.25 12.6 39.26 12.59 39.27 12.59 39.3 12.59 39.35 12.59 39.46 12.57 39.68 12.55 39.7 12.55 39.71 12.55 39.74 12.55 39.79 12.54 39.9 12.53 39.91 12.53 39.93 12.53 39.95 12.53 40.01 12.52 40.03 12.52 40.06 12.51 40.09 12.51 40.1 12.51 40.12 12.51"/><text class="cls-2" transform="translate(20.33 11.05)">MR</text><text class="cls-2" transform="matrix(-1, 0, 0, 1, 20.33, 11.05)">MR</text><text class="cls-3" transform="translate(0.53 20.86)"><tspan class="cls-4">r</tspan><tspan x="2.1" y="0">obust</tspan><tspan x="0" y="6.9">methods for</tspan><tspan x="0" y="13.8">magnetic</tspan><tspan class="cls-4" x="0" y="20.7">r</tspan><tspan x="2.1" y="20.7">esonance</tspan></text></svg>